<svg width="198" height="188" xmlns="http://www.w3.org/2000/svg" xmlns:xlink="http://www.w3.org/1999/xlink" overflow="hidden"><defs><filter id="fx0" x="-10%" y="-10%" width="120%" height="120%" filterUnits="userSpaceOnUse" primitiveUnits="userSpaceOnUse"><feComponentTransfer color-interpolation-filters="sRGB"><feFuncR type="discrete" tableValues="0 0"/><feFuncG type="discrete" tableValues="0 0"/><feFuncB type="discrete" tableValues="0 0"/><feFuncA type="linear" slope="0.4" intercept="0"/></feComponentTransfer><feGaussianBlur stdDeviation="6.11111 6.11111"/></filter><clipPath id="clip1"><rect x="386" y="900" width="198" height="188"/></clipPath><clipPath id="clip2"><rect x="-16" y="-16" width="93" height="89"/></clipPath><clipPath id="clip3"><rect x="0" y="0" width="200" height="190"/></clipPath><clipPath id="clip4"><rect x="410" y="918" width="131" height="132"/></clipPath><clipPath id="clip5"><rect x="410" y="918" width="131" height="132"/></clipPath><clipPath id="clip6"><rect x="410" y="918" width="131" height="132"/></clipPath></defs><g clip-path="url(#clip1)" transform="translate(-386 -900)"><g clip-path="url(#clip2)" filter="url(#fx0)" transform="translate(385 899)"><g clip-path="url(#clip3)"><path d="M59.1906 169.723C37.393 169.723 19.7225 152.053 19.7225 130.255L19.7225 59.1909C19.7225 37.3933 37.393 19.7228 59.1906 19.7228L140.255 19.7228C162.052 19.7228 179.723 37.3933 179.723 59.1909L179.723 130.255C179.723 152.053 162.052 169.723 140.255 169.723Z" fill="#FFFEFD" fill-rule="evenodd"/></g></g><path d="M434.468 1059C412.67 1059 395 1041.33 395 1019.53L395 948.468C395 926.671 412.67 909 434.468 909L515.532 909C537.33 909 555 926.671 555 948.468L555 1019.53C555 1041.33 537.33 1059 515.532 1059Z" fill="#FFFEFD" fill-rule="evenodd"/><g clip-path="url(#clip4)"><g clip-path="url(#clip5)"><g clip-path="url(#clip6)"><path d="M59.5833 59.5996 59.5833 111.073 70.4166 100.239 70.4166 59.5996 111.042 18.9583 18.9583 18.9583ZM68.5046 57.6875 67.7083 58.4783 67.7083 99.1141 62.2916 104.531 62.2916 58.4783 61.4995 57.6848 25.4962 21.6667 104.509 21.6667Z" stroke="#020F0F" stroke-width="4.68468" fill="#020F0F" transform="matrix(1 0 0 1 410 919)"/></g></g></g></g></svg>