<svg width="198" height="187" xmlns="http://www.w3.org/2000/svg" xmlns:xlink="http://www.w3.org/1999/xlink" overflow="hidden"><defs><filter id="fx0" x="-10%" y="-10%" width="120%" height="120%" filterUnits="userSpaceOnUse" primitiveUnits="userSpaceOnUse"><feComponentTransfer color-interpolation-filters="sRGB"><feFuncR type="discrete" tableValues="0 0"/><feFuncG type="discrete" tableValues="0 0"/><feFuncB type="discrete" tableValues="0 0"/><feFuncA type="linear" slope="0.4" intercept="0"/></feComponentTransfer><feGaussianBlur stdDeviation="6.11111 6.11111"/></filter><clipPath id="clip1"><rect x="433" y="284" width="198" height="187"/></clipPath><clipPath id="clip2"><rect x="-16" y="-16" width="93" height="89"/></clipPath><clipPath id="clip3"><rect x="0" y="0" width="200" height="189"/></clipPath><clipPath id="clip4"><rect x="456" y="302" width="132" height="131"/></clipPath><clipPath id="clip5"><rect x="456" y="302" width="132" height="131"/></clipPath><clipPath id="clip6"><rect x="456" y="302" width="132" height="131"/></clipPath></defs><g clip-path="url(#clip1)" transform="translate(-433 -284)"><g clip-path="url(#clip2)" filter="url(#fx0)" transform="translate(432 283)"><g clip-path="url(#clip3)"><path d="M58.9275 168.723C37.2752 168.723 19.7226 151.17 19.7226 129.518L19.7226 58.9276C19.7226 37.2754 37.2752 19.7228 58.9275 19.7228L140.518 19.7228C162.17 19.7228 179.722 37.2754 179.722 58.9276L179.722 129.518C179.722 151.17 162.17 168.723 140.518 168.723Z" fill="#FFFEFD" fill-rule="evenodd"/></g></g><path d="M481.205 442C459.552 442 442 424.448 442 402.795L442 332.205C442 310.553 459.552 293 481.205 293L562.795 293C584.447 293 602 310.553 602 332.205L602 402.795C602 424.448 584.447 442 562.795 442Z" fill="#FFFEFD" fill-rule="evenodd"/><g clip-path="url(#clip4)"><g clip-path="url(#clip5)"><g clip-path="url(#clip6)"><path d="M8.82442 69.8187 17.544 78.537 24.1875 72.2455 24.1875 115.53 57.7814 115.544 57.7814 81.9918 71.2189 81.9918 71.2189 115.549 104.813 115.563 104.813 72.1891 111.49 78.5047 120.176 69.82 64.5001 16.9313ZM102.125 112.875 73.9064 112.863 73.9064 79.3043 55.0939 79.3043 55.0939 112.855 26.8751 112.844 26.8751 69.7005 64.5001 34.0695 102.125 69.648ZM17.5951 74.7879 12.6756 69.8751 64.5001 20.6347 116.325 69.8751 111.437 74.7557 64.5001 30.3688Z" stroke="#020F0F" stroke-width="4.64866" fill="#020F0F" transform="matrix(1.00775 0 0 1 457 303)"/></g></g></g></g></svg>