<svg width="198" height="188" xmlns="http://www.w3.org/2000/svg" xmlns:xlink="http://www.w3.org/1999/xlink" overflow="hidden"><defs><filter id="fx0" x="-10%" y="-10%" width="120%" height="120%" filterUnits="userSpaceOnUse" primitiveUnits="userSpaceOnUse"><feComponentTransfer color-interpolation-filters="sRGB"><feFuncR type="discrete" tableValues="0 0"/><feFuncG type="discrete" tableValues="0 0"/><feFuncB type="discrete" tableValues="0 0"/><feFuncA type="linear" slope="0.4" intercept="0"/></feComponentTransfer><feGaussianBlur stdDeviation="6.11111 6.11111"/></filter><clipPath id="clip1"><rect x="465" y="621" width="198" height="188"/></clipPath><clipPath id="clip2"><rect x="-16" y="-16" width="93" height="89"/></clipPath><clipPath id="clip3"><rect x="0" y="0" width="200" height="190"/></clipPath><clipPath id="clip4"><rect x="489" y="640" width="131" height="130"/></clipPath><clipPath id="clip5"><rect x="489" y="640" width="131" height="130"/></clipPath><clipPath id="clip6"><rect x="489" y="640" width="131" height="130"/></clipPath></defs><g clip-path="url(#clip1)" transform="translate(-465 -621)"><g clip-path="url(#clip2)" filter="url(#fx0)" transform="translate(464 620)"><g clip-path="url(#clip3)"><path d="M59.1906 169.723C37.393 169.723 19.7226 152.052 19.7226 130.255L19.7226 59.1911C19.7226 37.3935 37.393 19.723 59.1906 19.723L140.254 19.723C162.052 19.723 179.722 37.3935 179.722 59.1911L179.722 130.255C179.722 152.052 162.052 169.723 140.254 169.723Z" fill="#FFFEFD" fill-rule="evenodd"/></g></g><path d="M513.468 780C491.67 780 474 762.33 474 740.532L474 669.468C474 647.671 491.67 630 513.468 630L594.532 630C616.329 630 634 647.671 634 669.468L634 740.532C634 762.33 616.329 780 594.532 780Z" fill="#FFFEFD" fill-rule="evenodd"/><g clip-path="url(#clip4)"><g clip-path="url(#clip5)"><g clip-path="url(#clip6)"><path d="M589.885 692.015C590.846 690.345 591.618 688.574 592.188 686.734L598.146 683.755 598.146 676.984 592.188 674.005C591.69 672.16 590.962 670.386 590.021 668.723L592.188 662.359 587.313 657.484 580.948 659.65C579.286 658.704 577.512 657.971 575.667 657.469L572.688 651.51 565.917 651.51 562.938 657.469C561.093 657.966 559.319 658.694 557.656 659.635L551.292 657.469 546.417 662.344 548.583 668.708C547.643 670.371 546.915 672.145 546.417 673.99L540.458 676.969 540.458 683.74 546.417 686.719C546.915 688.563 547.643 690.337 548.583 692L546.417 698.365 551.156 703.104 557.521 700.938C559.184 701.878 560.958 702.606 562.802 703.104L565.781 709.062 572.552 709.062 575.531 703.104C577.376 702.606 579.15 701.878 580.813 700.938L587.177 703.104 592.052 698.365ZM587.321 692.887 588.938 697.633 586.48 700.023 581.686 698.39 580.516 697.992 579.448 698.615C577.981 699.444 576.415 700.083 574.788 700.518L573.642 700.845 573.109 701.911 570.878 706.38 567.459 706.38 565.229 701.911 564.695 700.845 563.55 700.518C561.922 700.083 560.356 699.444 558.889 698.615L557.822 697.992 556.652 698.39 551.882 700.015 549.526 697.659 551.151 692.888 551.549 691.718 550.926 690.651C550.099 689.184 549.462 687.617 549.03 685.989L548.703 684.843 547.638 684.311 543.167 682.078 543.167 678.653 547.636 676.427 548.7 675.894 549.028 674.748C549.46 673.12 550.097 671.554 550.923 670.087L551.546 669.018 551.148 667.85 549.523 663.078 552.015 660.586 556.784 662.211 557.954 662.617 559.021 661.993C560.489 661.167 562.055 660.53 563.682 660.097L564.833 659.751 565.367 658.685 567.597 654.216 571.021 654.216 573.251 658.685 573.784 659.751 574.929 660.078C576.556 660.51 578.123 661.147 579.59 661.974L580.658 662.598 581.828 662.192 586.596 660.567 589.088 663.059 587.463 667.831 587.065 669 587.688 670.068C588.516 671.535 589.156 673.101 589.59 674.729L589.917 675.875 590.982 676.408 595.451 678.64 595.451 682.065 590.982 684.296 589.946 684.815 589.605 685.923C589.096 687.568 588.407 689.152 587.551 690.646L586.928 691.713Z" stroke="#020F0F" stroke-width="2.34234" fill="#020F0F"/><path d="M509.854 726.149 509.854 732.92 515.813 735.899C516.311 737.744 517.039 739.518 517.979 741.181L515.948 747.545 520.688 752.285 527.052 750.254C528.715 751.195 530.489 751.922 532.333 752.42L535.313 758.379 542.083 758.379 545.063 752.42C546.907 751.922 548.681 751.194 550.344 750.254L556.708 752.42 561.448 747.545 559.417 741.316C560.358 739.653 561.085 737.879 561.583 736.035L567.542 733.056 567.542 726.285 561.583 723.306C561.085 721.461 560.358 719.687 559.417 718.024L561.583 711.66 556.708 706.785 550.344 708.951C548.67 708.034 546.899 707.307 545.063 706.785L542.083 700.826 535.313 700.826 532.333 706.785C530.489 707.283 528.715 708.01 527.052 708.951L520.688 706.785 515.948 711.524 517.979 717.889C517.062 719.563 516.335 721.334 515.813 723.17ZM518.061 725.066 518.402 723.958C518.868 722.322 519.511 720.741 520.319 719.245L520.926 718.203 520.559 717.056 519.03 712.261 521.411 709.879 526.18 711.504 527.35 711.904 528.417 711.281C529.884 710.451 531.45 709.812 533.078 709.378L534.229 709.062 534.763 707.997 536.993 703.528 540.417 703.528 542.647 707.997 543.165 709.034 544.273 709.374C545.909 709.841 547.489 710.485 548.986 711.293L550.054 711.916 551.224 711.516 555.992 709.891 558.484 712.384 556.859 717.155 556.461 718.324 557.084 719.392C557.912 720.86 558.552 722.426 558.986 724.055L559.312 725.199 560.378 725.732 564.833 727.959 564.833 731.383 560.365 733.615 559.299 734.148 558.973 735.293C558.538 736.921 557.899 738.488 557.07 739.955L556.458 741.005 556.834 742.16 558.359 746.836 555.964 749.311 551.224 747.696 550.054 747.297 548.986 747.92C547.518 748.75 545.95 749.39 544.321 749.823L543.175 750.151 542.643 751.216 540.412 755.685 536.989 755.685 534.759 751.216 534.225 750.151 533.08 749.823C531.451 749.389 529.885 748.75 528.419 747.92L527.379 747.314 526.23 747.679 521.438 749.209 519.031 746.803 520.56 742.008 520.927 740.861 520.321 739.82C519.492 738.353 518.852 736.787 518.418 735.159L518.09 734.013 517.026 733.479 512.557 731.248 512.557 727.823 517.026 725.591Z" stroke="#020F0F" stroke-width="2.34234" fill="#020F0F"/><path d="M569.302 670.206C563.693 670.206 559.146 674.753 559.146 680.362 559.146 685.971 563.693 690.519 569.302 690.519 574.911 690.519 579.458 685.971 579.458 680.362 579.416 674.771 574.894 670.248 569.302 670.206ZM569.302 687.81C565.191 687.804 561.86 684.473 561.854 680.362 561.909 676.272 565.212 672.969 569.302 672.914 573.413 672.92 576.744 676.251 576.75 680.362 576.699 684.455 573.395 687.762 569.302 687.816Z" stroke="#020F0F" stroke-width="2.34234" fill="#020F0F"/><path d="M538.698 739.831C544.307 739.831 548.854 735.283 548.854 729.674 548.854 724.065 544.307 719.518 538.698 719.518 533.089 719.518 528.542 724.065 528.542 729.674 528.535 735.277 533.071 739.824 538.674 739.831 538.682 739.831 538.69 739.831 538.698 739.831ZM538.698 722.22C542.811 722.22 546.146 725.554 546.146 729.668 546.146 733.781 542.811 737.115 538.698 737.115 534.585 737.115 531.25 733.781 531.25 729.668 531.256 725.557 534.587 722.226 538.698 722.22Z" stroke="#020F0F" stroke-width="2.34234" fill="#020F0F"/></g></g></g></g></svg>