<svg width="198" height="188" xmlns="http://www.w3.org/2000/svg" xmlns:xlink="http://www.w3.org/1999/xlink" overflow="hidden"><defs><filter id="fx0" x="-10%" y="-10%" width="120%" height="120%" filterUnits="userSpaceOnUse" primitiveUnits="userSpaceOnUse"><feComponentTransfer color-interpolation-filters="sRGB"><feFuncR type="discrete" tableValues="0 0"/><feFuncG type="discrete" tableValues="0 0"/><feFuncB type="discrete" tableValues="0 0"/><feFuncA type="linear" slope="0.4" intercept="0"/></feComponentTransfer><feGaussianBlur stdDeviation="6.11111 6.11111"/></filter><clipPath id="clip1"><rect x="178" y="456" width="198" height="188"/></clipPath><clipPath id="clip2"><rect x="-16" y="-16" width="93" height="89"/></clipPath><clipPath id="clip3"><rect x="0" y="0" width="200" height="190"/></clipPath><clipPath id="clip4"><rect x="202" y="475" width="131" height="130"/></clipPath><clipPath id="clip5"><rect x="202" y="475" width="131" height="130"/></clipPath><clipPath id="clip6"><rect x="202" y="475" width="131" height="130"/></clipPath></defs><g clip-path="url(#clip1)" transform="translate(-178 -456)"><g clip-path="url(#clip2)" filter="url(#fx0)" transform="translate(177 455)"><g clip-path="url(#clip3)"><path d="M59.1906 169.723C37.393 169.723 19.7225 152.052 19.7225 130.255L19.7225 59.1911C19.7225 37.3935 37.393 19.723 59.1906 19.723L140.254 19.723C162.052 19.723 179.722 37.3935 179.722 59.1911L179.722 130.255C179.722 152.052 162.052 169.723 140.254 169.723Z" fill="#FFFEFD" fill-rule="evenodd"/></g></g><path d="M226.468 615C204.67 615 187 597.33 187 575.532L187 504.468C187 482.671 204.67 465 226.468 465L307.532 465C329.329 465 347 482.671 347 504.468L347 575.532C347 597.33 329.329 615 307.532 615Z" fill="#FFFEFD" fill-rule="evenodd"/><g clip-path="url(#clip4)"><g clip-path="url(#clip5)"><g clip-path="url(#clip6)"><path d="M310.333 502.083C310.338 496.848 306.097 492.601 300.862 492.596 295.627 492.592 291.379 496.832 291.375 502.068 291.372 505.276 292.993 508.268 295.681 510.019L288.667 530.521 288.667 530.521C286.731 530.519 284.84 531.109 283.25 532.214L269.113 521.61C270.926 516.699 268.414 511.248 263.503 509.435 258.591 507.622 253.14 510.134 251.327 515.045 249.814 519.144 251.299 523.745 254.921 526.188L245.889 554.896 245.333 554.896C240.098 554.883 235.844 559.117 235.832 564.352 235.819 569.588 240.053 573.842 245.288 573.854 250.524 573.867 254.778 569.633 254.79 564.398 254.797 561.398 253.384 558.572 250.98 556.778L260.094 527.813 260.229 527.813C262.259 527.809 264.233 527.154 265.863 525.944L279.878 536.439C279.427 537.572 279.193 538.78 279.188 540 279.186 545.235 283.428 549.481 288.663 549.483 293.898 549.485 298.144 545.243 298.146 540.007 298.147 536.812 296.538 533.831 293.867 532.078L300.854 511.563C306.089 511.563 310.333 507.319 310.333 502.083Z" stroke="#28304E" stroke-width="1.35413" fill="#020F0F"/><path d="M229.083 492.604 220.958 492.604 220.958 587.396 314.396 587.396 314.396 579.271 229.083 579.271 229.083 492.604Z" stroke="#28304E" stroke-width="1.35413" fill="#020F0F"/></g></g></g></g></svg>